<svg width="85" height="85" viewBox="0 0 85 85" fill="none" xmlns="http://www.w3.org/2000/svg">
<circle cx="42.5" cy="42.5" r="42.5" fill="#194DD2"/>
<g clip-path="url(#clip0_0_99)">
<path d="M56.6669 29.514C56.6669 31.469 50.3249 33.0556 42.5002 33.0556C34.6755 33.0556 28.3336 31.469 28.3336 29.514C28.3336 27.559 34.6755 25.9723 42.5002 25.9723C50.3249 25.9723 56.6669 27.559 56.6669 29.514Z" fill="white"/>
<path d="M42.5002 35.4168C34.7086 35.4168 28.3336 33.764 28.3336 31.8751V38.9585C28.3336 40.8473 34.7086 42.5001 42.5002 42.5001C50.2919 42.5001 56.6669 40.8473 56.6669 38.9585V31.8751C56.6669 33.764 50.2919 35.4168 42.5002 35.4168Z" fill="white"/>
<path d="M42.5002 44.8612C34.7086 44.8612 28.3336 43.2084 28.3336 41.3195V48.4029C28.3336 50.2917 34.7086 51.9445 42.5002 51.9445C50.2919 51.9445 56.6669 50.2917 56.6669 48.4029V41.3195C56.6669 43.2084 50.2919 44.8612 42.5002 44.8612Z" fill="white"/>
<path d="M42.5002 54.3056C34.7086 54.3056 28.3336 52.6529 28.3336 50.764V57.8473C28.3336 59.7362 34.7086 61.389 42.5002 61.389C50.2919 61.389 56.6669 59.7362 56.6669 57.8473V50.764C56.6669 52.6529 50.2919 54.3056 42.5002 54.3056Z" fill="white"/>
</g>
<defs>
<clipPath id="clip0_0_99">
<rect width="37.7778" height="37.7778" fill="white" transform="translate(23.6113 23.6112)"/>
</clipPath>
</defs>
</svg>
