<svg width="85" height="85" viewBox="0 0 85 85" fill="none" xmlns="http://www.w3.org/2000/svg">
<circle cx="42.5" cy="42.5" r="42.5" fill="#194DD2"/>
<g clip-path="url(#clip0_0_120)">
<path d="M56.6654 51.9445C55.8219 51.9668 54.9998 52.2155 54.2854 52.6646L49.0626 47.5764C50.1274 46.2318 50.7391 44.5845 50.8099 42.8707L54.5168 42.5C54.8316 43.2932 55.4239 43.9448 56.1834 44.3337C56.943 44.7226 57.818 44.8222 58.6455 44.6139C59.473 44.4056 60.1966 43.9036 60.6815 43.2015C61.1664 42.4994 61.3796 41.6449 61.2814 40.7973C61.1832 39.9496 60.7802 39.1666 60.1476 38.594C59.5149 38.0213 58.6957 37.6982 57.8425 37.6846C56.9893 37.6711 56.1603 37.9681 55.5098 38.5204C54.8593 39.0727 54.4317 39.8426 54.3067 40.6867L50.5501 40.9889C50.2997 39.6974 49.7455 38.4841 48.9334 37.4491C48.1213 36.414 47.0747 35.5871 45.8799 35.0366L46.6071 33.0556H47.221C48.3656 33.047 49.4682 32.6229 50.3236 31.8622C51.179 31.1015 51.7289 30.0559 51.8711 28.9201C52.0133 27.7842 51.7381 26.6354 51.0966 25.6873C50.4552 24.7392 49.4912 24.0564 48.3839 23.7659C47.2767 23.4754 46.1016 23.5969 45.0773 24.108C44.053 24.619 43.2492 25.4847 42.8154 26.5441C42.3817 27.6034 42.3475 28.7843 42.7192 29.8669C43.0909 30.9496 43.8432 31.8604 44.8362 32.4299L44.1987 34.4486C43.6149 34.3145 43.0175 34.248 42.4185 34.2503C40.4587 34.2503 38.6643 34.9492 37.2689 36.1132L30.1997 29.0204C30.6119 28.355 30.7921 27.5718 30.712 26.7932C30.632 26.0145 30.2962 25.2843 29.7573 24.7167C29.2183 24.1491 28.5065 23.776 27.733 23.6557C26.9596 23.5355 26.1681 23.6749 25.4822 24.052C24.7964 24.4292 24.2548 25.023 23.9421 25.7406C23.6294 26.4582 23.5633 27.2591 23.754 28.0183C23.9447 28.7774 24.3815 29.452 24.9962 29.9366C25.6109 30.4212 26.3688 30.6886 27.1515 30.6968C27.815 30.6945 28.436 30.5103 28.9625 30.1916L36.0293 37.2843C34.8632 38.7351 34.2299 40.5419 34.2349 42.4032V42.8825L32.6765 43.1423C32.2166 42.0664 31.3737 41.1997 30.3111 40.7099C29.2486 40.2202 28.042 40.1423 26.9253 40.4914C25.8086 40.8406 24.8613 41.5918 24.2669 42.5996C23.6726 43.6074 23.4735 44.7999 23.7083 45.9461C23.943 47.0923 24.595 48.1105 25.5377 48.8035C26.4804 49.4964 27.6468 49.8147 28.8109 49.6966C29.9749 49.5786 31.0537 49.0326 31.8381 48.1645C32.6225 47.2965 33.0568 46.1681 33.0567 44.9981L33.0543 44.8588L34.5418 44.6298C35.0891 46.5644 36.3187 48.2353 38.0032 49.3331L36.6904 52.1381C36.2771 52.0158 35.8487 51.9522 35.4178 51.9492H35.3776C34.2603 51.9497 33.1793 52.3464 32.3269 53.0688C31.4744 53.7912 30.9058 54.7924 30.7219 55.8946C30.5381 56.9967 30.7511 58.1283 31.3229 59.0882C31.8948 60.0482 32.7885 60.7742 33.8452 61.1373C34.9019 61.5004 36.0532 61.4771 37.0943 61.0714C38.1354 60.6657 38.9989 59.904 39.5314 58.9217C40.0639 57.9394 40.2307 56.8001 40.0024 55.7063C39.774 54.6125 39.1652 53.6352 38.2842 52.9479L39.6205 50.2256C40.48 50.5703 41.4787 50.771 42.5224 50.771C44.5222 50.771 46.3497 50.0367 47.7546 48.8254L52.8924 53.8404C52.2541 54.6915 51.9219 55.7331 51.9495 56.7965C51.9771 57.8599 52.363 58.8828 53.0446 59.6995C53.7262 60.5162 54.6636 61.0789 55.705 61.2963C56.7463 61.5137 57.8305 61.3732 58.782 60.8975C59.7334 60.4217 60.4964 59.6387 60.9473 58.6752C61.3981 57.7117 61.5104 56.6241 61.266 55.5888C61.0216 54.5535 60.4348 53.6311 59.6007 52.9709C58.7665 52.3107 57.7339 51.9516 56.6701 51.9516L56.6654 51.9445ZM35.4154 59.0278C34.7892 59.0278 34.1886 58.779 33.7459 58.3363C33.3031 57.8935 33.0543 57.2929 33.0543 56.6667C33.0543 56.0405 33.3031 55.4399 33.7459 54.9971C34.1886 54.5543 34.7892 54.3056 35.4154 54.3056C36.0416 54.3056 36.6422 54.5543 37.085 54.9971C37.5278 55.4399 37.7765 56.0405 37.7765 56.6667C37.7765 57.2929 37.5278 57.8935 37.085 58.3363C36.6422 58.779 36.0416 59.0278 35.4154 59.0278ZM42.4987 48.4028C40.9332 48.4028 39.4318 47.7809 38.3248 46.6739C37.2179 45.5669 36.596 44.0655 36.596 42.5C36.596 40.9345 37.2179 39.4331 38.3248 38.3261C39.4318 37.2191 40.9332 36.5973 42.4987 36.5973C44.0643 36.5973 45.5657 37.2191 46.6726 38.3261C47.7796 39.4331 48.4015 40.9345 48.4015 42.5C48.4015 44.0655 47.7796 45.5669 46.6726 46.6739C45.5657 47.7809 44.0643 48.4028 42.4987 48.4028Z" fill="white"/>
</g>
<defs>
<clipPath id="clip0_0_120">
<rect width="37.7778" height="37.7778" fill="white" transform="translate(23.6112 23.6112)"/>
</clipPath>
</defs>
</svg>
