<svg width="85" height="85" viewBox="0 0 85 85" fill="none" xmlns="http://www.w3.org/2000/svg">
<circle cx="42.5" cy="42.5" r="42.5" fill="#194DD2"/>
<g clip-path="url(#clip0_0_106)">
<path d="M42.5 23.6111L47.2222 30.6944H44.8611V35.4166H40.1389V30.6944H37.7778L42.5 23.6111Z" fill="white"/>
<path d="M59.0278 40.1389V59.0278H25.9722V40.1389H59.0278ZM61.3889 37.7778H23.6111V61.3889H61.3889V37.7778Z" fill="white"/>
<path d="M42.5 42.5C43.4302 42.5 44.3513 42.6832 45.2107 43.0392C46.0701 43.3952 46.8509 43.9169 47.5087 44.5747C48.1664 45.2324 48.6882 46.0133 49.0441 46.8727C49.4001 47.732 49.5833 48.6531 49.5833 49.5833C49.5833 50.5135 49.4001 51.4346 49.0441 52.294C48.6882 53.1534 48.1664 53.9343 47.5087 54.592C46.8509 55.2498 46.0701 55.7715 45.2107 56.1275C44.3513 56.4835 43.4302 56.6667 42.5 56.6667H54.3056V54.3056H56.6667V44.8611H54.3056V42.5H42.5Z" fill="white"/>
<path d="M35.4166 49.5833C35.4166 47.7047 36.1629 45.903 37.4913 44.5747C38.8197 43.2463 40.6214 42.5 42.5 42.5H30.6944V44.8611H28.3333V54.3056H30.6944V56.6667H42.5C40.6214 56.6667 38.8197 55.9204 37.4913 54.592C36.1629 53.2636 35.4166 51.462 35.4166 49.5833Z" fill="white"/>
</g>
<defs>
<clipPath id="clip0_0_106">
<rect width="37.7778" height="37.7778" fill="white" transform="translate(23.6111 23.6111)"/>
</clipPath>
</defs>
</svg>
