<svg width="24" height="30" viewBox="0 0 24 30" fill="none" xmlns="http://www.w3.org/2000/svg">
<path d="M9.48 18.8C9.48 17.4667 9.77333 16.3733 10.36 15.52C10.9467 14.64 11.8 13.68 12.92 12.64C13.6933 11.92 14.2667 11.32 14.64 10.84C15.0133 10.3333 15.2 9.8 15.2 9.24C15.2 8.46667 14.8667 7.85333 14.2 7.4C13.56 6.92 12.72 6.68 11.68 6.68C10.6133 6.68 9.64 6.93333 8.76 7.44C7.90667 7.94667 7.21333 8.65333 6.68 9.56L0.72 6.36C1.81333 4.49333 3.36 3.04 5.36 2C7.36 0.959999 9.77333 0.439998 12.6 0.439998C15.7733 0.439998 18.32 1.10666 20.24 2.44C22.1867 3.74667 23.16 5.58667 23.16 7.96C23.16 9.05333 22.9733 10.0267 22.6 10.88C22.2267 11.7067 21.7733 12.4133 21.24 13C20.7333 13.56 20.0667 14.2 19.24 14.92C18.3333 15.6933 17.6667 16.36 17.24 16.92C16.8133 17.4533 16.6 18.08 16.6 18.8H9.48ZM13.04 29.36C11.7333 29.36 10.6533 28.96 9.8 28.16C8.94667 27.3333 8.52 26.3333 8.52 25.16C8.52 23.96 8.93333 22.9733 9.76 22.2C10.6133 21.4267 11.7067 21.04 13.04 21.04C14.3733 21.04 15.4667 21.4267 16.32 22.2C17.1733 22.9733 17.6 23.96 17.6 25.16C17.6 26.3333 17.1733 27.3333 16.32 28.16C15.4667 28.96 14.3733 29.36 13.04 29.36Z" fill="#0A51CB"/>
</svg>
