<svg width="49" height="45" viewBox="0 0 49 45" fill="none" xmlns="http://www.w3.org/2000/svg">
<path d="M4.6028 1.33081L12.1668 8.80613L17.1269 3.90428L29.5269 16.1589L35.727 10.0316L48.623 22.7764L45.151 26.2077L35.727 16.8942L29.5269 23.0215L17.1269 10.7669L12.1668 15.6687L1.13078 4.76211L4.6028 1.33081Z" fill="#1565C0"/>
<path d="M5.72205e-05 0.199951H11.3077L5.72205e-05 11.5076V0.199951Z" fill="#1565C0"/>
<path d="M4.90009 16.125H8.4877e-05V44.3H4.90009V16.125Z" fill="#B3E5FC"/>
<path d="M12.25 24.7002H7.35V44.3002H12.25V24.7002Z" fill="#B3E5FC"/>
<path d="M19.6001 18.575H14.7001V44.2999H19.6001V18.575Z" fill="#B3E5FC"/>
<path d="M26.95 25.9248H22.05V44.2998H26.95V25.9248Z" fill="#B3E5FC"/>
<path d="M34.3 29.5999H29.4V44.2998H34.3V29.5999Z" fill="#B3E5FC"/>
<path d="M41.6499 27.1499H36.75V44.2999H41.6499V27.1499Z" fill="#B3E5FC"/>
<path d="M49 32.05H44.1V44.3H49V32.05Z" fill="#B3E5FC"/>
</svg>
